                                                                        S      1
,,12HF_Gyroid1 v2,12HF_Gyroid1 v2,7Hunknown,7Hunknown,32,38,7,99,15,,1.,G      1
6,1HM,1,0.08,15H20250310.152202,1D-5,10000.,7Hunknown,7Hunknown,11,0,15HG      2
20250310.221008;                                                        G      3
     408       1                                                00000001D      1
     408       0               1       0                               0D      2
     308       2                                                00010200D      3
     308       0               1       0                               0D      4
     186       3                                                00010000D      5
     186            -109       1       0                               0D      6
     186       4                                                00000000D      7
     186            -109       1       0                               0D      8
     514       5                                                00010000D      9
     514                       1       1                               0D     10
     514       6                                                00010000D     11
     514                       1       1                               0D     12
     510       7                                                00010000D     13
     510            -109       1       1                               0D     14
     510       8                                                00010000D     15
     510            -109       1       1                               0D     16
     510       9                                                00010000D     17
     510            -109       1       1                               0D     18
     510      10                                                00010000D     19
     510            -109       1       1                               0D     20
     510      11                                                00010000D     21
     510            -109       1       1                               0D     22
     510      12                                                00010000D     23
     510            -109       1       1                               0D     24
     510      13                                                00010000D     25
     510            -109       1       1                               0D     26
     510      14                                                00010000D     27
     510            -109       1       1                               0D     28
     510      15                                                00010000D     29
     510            -109       1       1                               0D     30
     508      16                                                00010000D     31
     508                       1       1                               0D     32
     508      17                                                00010000D     33
     508                       1       1                               0D     34
     508      18                                                00010000D     35
     508                       1       1                               0D     36
     508      19                                                00010000D     37
     508                       1       1                               0D     38
     508      20                                                00010000D     39
     508                       1       1                               0D     40
     508      21                                                00010000D     41
     508                       1       1                               0D     42
     508      22                                                00010000D     43
     508                       1       1                               0D     44
     508      23                                                00010000D     45
     508                       1       1                               0D     46
     508      24                                                00010000D     47
     508                       1       1                               0D     48
     126      25                                                00010000D     49
     126       0               2       0                               0D     50
     126      27                                                00010000D     51
     126       0               2       0                               0D     52
     126      29                                                00010000D     53
     126       0               2       0                               0D     54
     126      31                                                00010000D     55
     126       0               2       0                               0D     56
     126      33                                                00010000D     57
     126       0               2       0                               0D     58
     126      35                                                00010000D     59
     126       0               2       0                               0D     60
     126      37                                                00010000D     61
     126       0               2       0                               0D     62
     126      39                                                00010000D     63
     126       0               2       0                               0D     64
     126      41                                                00010000D     65
     126       0               2       0                               0D     66
     126      43                                                00010000D     67
     126       0               2       0                               0D     68
     126      45                                                00010000D     69
     126       0               2       0                               0D     70
     126      47                                                00010000D     71
     126       0               2       0                               0D     72
     126      49                                                00010000D     73
     126       0              10       0                               0D     74
     126      59                                                00010000D     75
     126       0               2       0                               0D     76
     126      61                                                00010000D     77
     126       0              10       0                               0D     78
     128      71                                                00010000D     79
     128       0    -109       4       0                               0D     80
     128      75                                                00010000D     81
     128       0    -109       4       0                               0D     82
     128      79                                                00010000D     83
     128       0    -109       4       0                               0D     84
     128      83                                                00010000D     85
     128       0    -109       4       0                               0D     86
     128      87                                                00010000D     87
     128       0    -109       4       0                               0D     88
     128      91                                                00010000D     89
     128       0    -109       4       0                               0D     90
     128      95                                                00010000D     91
     128       0    -109      12       0                               0D     92
     128     107                                                00010000D     93
     128       0    -109       4       0                               0D     94
     128     111                                                00010000D     95
     128       0    -109       4       0                               0D     96
     502     115                                                00010000D     97
     502                       2       1                               0D     98
     502     117                                                00010000D     99
     502                       2       1                               0D    100
     504     119                                                00010001D    101
     504                       3       1                               0D    102
     504     122                                                00010001D    103
     504                       1       1                               0D    104
     406     123                                                00000000D    105
     406                       1      15                               0D    106
     406     124                                                00000000D    107
     406                       1      15                               0D    108
     314     125                                                00000200D    109
     314                       2       0                               0D    110
408,3,0.,0.,0.,1.,0,1,107;                                             1P      1
308,0,10HComponent1,1,5;                                               3P      2
186,9,1,0,0,1,105;                                                     5P      3
186,11,1,0,0,1,105;                                                    7P      4
514,6,13,1,15,1,17,1,19,1,21,1,23,1;                                   9P      5
514,3,25,1,27,1,29,1;                                                 11P      6
510,79,1,1,31;                                                        13P      7
510,81,1,1,33;                                                        15P      8
510,83,1,1,35;                                                        17P      9
510,85,1,1,37;                                                        19P     10
510,87,1,1,39;                                                        21P     11
510,89,1,1,41;                                                        23P     12
510,91,1,1,43;                                                        25P     13
510,93,1,1,45;                                                        27P     14
510,95,1,1,47;                                                        29P     15
508,4,0,101,1,0,0,0,101,2,1,0,0,101,3,0,0,0,101,4,0,0;                31P     16
508,4,0,101,5,0,0,0,101,4,1,0,0,101,6,0,0,0,101,7,0,0;                33P     17
508,4,0,101,8,0,0,0,101,7,1,0,0,101,9,0,0,0,101,10,0,0;               35P     18
508,4,0,101,11,0,0,0,101,10,1,0,0,101,12,0,0,0,101,2,0,0;             37P     19
508,4,0,101,12,1,0,0,101,9,1,0,0,101,6,1,0,0,101,3,1,0;               39P     20
508,4,0,101,11,1,0,0,101,1,1,0,0,101,5,1,0,0,101,8,1,0;               41P     21
508,4,0,103,1,0,0,0,103,2,1,0,0,103,3,1,0,0,103,2,0,0;                43P     22
508,1,0,103,1,1,0;                                                    45P     23
508,1,0,103,3,0,0;                                                    47P     24
126,1,1,0,0,1,0,0.,0.,65.,65.,1.,1.,-0.5,-0.4,-0.1,-0.5,0.25,         49P     25
-0.1,0.,65.,0.,0.,0.;                                                 49P     26
126,1,1,0,0,1,0,0.,0.,1.,1.,1.,1.,-0.5,-0.4,-0.1,-0.5,-0.4,           51P     27
-0.09,0.,1.,0.,0.,0.;                                                 51P     28
126,1,1,0,0,1,0,-65.,-65.,0.,0.,1.,1.,-0.5,0.25,-0.09,-0.5,-0.4,      53P     29
-0.09,-65.,0.,0.,0.,0.;                                               53P     30
126,1,1,0,0,1,0,0.,0.,1.,1.,1.,1.,-0.5,0.25,-0.1,-0.5,0.25,           55P     31
-0.09,0.,1.,0.,0.,0.;                                                 55P     32
126,1,1,0,0,1,0,0.,0.,110.,110.,1.,1.,-0.5,0.25,-0.1,0.6,0.25,        57P     33
-0.1,0.,110.,0.,0.,0.;                                                57P     34
126,1,1,0,0,1,0,-110.,-110.,0.,0.,1.,1.,0.6,0.25,-0.09,-0.5,          59P     35
0.25,-0.09,-110.,0.,0.,0.,0.;                                         59P     36
126,1,1,0,0,1,0,0.,0.,1.,1.,1.,1.,0.6,0.25,-0.1,0.6,0.25,-0.09,       61P     37
0.,1.,0.,0.,0.;                                                       61P     38
126,1,1,0,0,1,0,0.,0.,65.,65.,1.,1.,0.6,0.25,-0.1,0.6,-0.4,-0.1,      63P     39
0.,65.,0.,0.,0.;                                                      63P     40
126,1,1,0,0,1,0,-65.,-65.,0.,0.,1.,1.,0.6,-0.4,-0.09,0.6,0.25,        65P     41
-0.09,-65.,0.,0.,0.,0.;                                               65P     42
126,1,1,0,0,1,0,0.,0.,1.,1.,1.,1.,0.6,-0.4,-0.1,0.6,-0.4,-0.09,       67P     43
0.,1.,0.,0.,0.;                                                       67P     44
126,1,1,0,0,1,0,0.,0.,110.,110.,1.,1.,0.6,-0.4,-0.1,-0.5,-0.4,        69P     45
-0.1,0.,110.,0.,0.,0.;                                                69P     46
126,1,1,0,0,1,0,-110.,-110.,0.,0.,1.,1.,-0.5,-0.4,-0.09,0.6,          71P     47
-0.4,-0.09,-110.,0.,0.,0.,0.;                                         71P     48
126,8,2,0,1,0,0,-3.14159265358979,-3.14159265358979,                  73P     49
-3.14159265358979,-1.5707963267949,-1.5707963267949,0.,0.,            73P     50
1.5707963267949,1.5707963267949,3.14159265358979,                     73P     51
3.14159265358979,3.14159265358979,1.,0.707106781186548,1.,            73P     52
0.707106781186548,1.,0.707106781186548,1.,0.707106781186548,1.,       73P     53
-0.15,-1.83697019872103D-17,0.4,-0.15,-0.15,0.4,                      73P     54
9.18485099360515D-18,-0.15,0.4,0.15,-0.15,0.4,0.15,0.,0.4,0.15,       73P     55
0.15,0.4,9.18485099360515D-18,0.15,0.4,-0.15,0.15,0.4,-0.15,          73P     56
1.83697019872103D-17,0.4,-3.14159265358979,3.14159265358979,0.,       73P     57
0.,0.;                                                                73P     58
126,1,1,0,0,1,0,-2.66666666666667,-2.66666666666667,0.,0.,1.,1.,      75P     59
-0.15,0.,0.4,-0.15,0.,0.,-2.66666666666667,0.,0.,0.,0.;               75P     60
126,8,2,0,1,0,0,-3.14159265358979,-3.14159265358979,                  77P     61
-3.14159265358979,-1.5707963267949,-1.5707963267949,0.,0.,            77P     62
1.5707963267949,1.5707963267949,3.14159265358979,                     77P     63
3.14159265358979,3.14159265358979,1.,0.707106781186548,1.,            77P     64
0.707106781186548,1.,0.707106781186548,1.,0.707106781186548,1.,       77P     65
-0.15,-1.83697019872103D-17,0.,-0.15,-0.15,0.,                        77P     66
9.18485099360515D-18,-0.15,0.,0.15,-0.15,0.,0.15,0.,0.,0.15,          77P     67
0.15,0.,9.18485099360515D-18,0.15,0.,-0.15,0.15,0.,-0.15,             77P     68
1.83697019872103D-17,0.,-3.14159265358979,3.14159265358979,0.,        77P     69
0.,0.;                                                                77P     70
128,1,1,1,1,0,0,1,0,0,-0.001,-0.001,65.001,65.001,-0.001,-0.001,      79P     71
1.001,1.001,1.,1.,1.,1.,-0.5,0.25001,-0.10001,-0.5,-0.40001,          79P     72
-0.10001,-0.5,0.25001,-0.08999,-0.5,-0.40001,-0.08999,-0.001,         79P     73
65.001,-0.001,1.001;                                                  79P     74
128,1,1,1,1,0,0,1,0,0,-0.001,-0.001,110.001,110.001,-0.001,           81P     75
-0.001,1.001,1.001,1.,1.,1.,1.,0.60001,0.25,-0.10001,-0.50001,        81P     76
0.25,-0.10001,0.60001,0.25,-0.08999,-0.50001,0.25,-0.08999,           81P     77
-0.001,110.001,-0.001,1.001;                                          81P     78
128,1,1,1,1,0,0,1,0,0,-0.001,-0.001,65.001,65.001,-0.001,-0.001,      83P     79
1.001,1.001,1.,1.,1.,1.,0.6,-0.40001,-0.10001,0.6,0.25001,            83P     80
-0.10001,0.6,-0.40001,-0.08999,0.6,0.25001,-0.08999,-0.001,           83P     81
65.001,-0.001,1.001;                                                  83P     82
128,1,1,1,1,0,0,1,0,0,-0.001,-0.001,110.001,110.001,-0.001,           85P     83
-0.001,1.001,1.001,1.,1.,1.,1.,-0.50001,-0.4,-0.10001,0.60001,        85P     84
-0.4,-0.10001,-0.50001,-0.4,-0.08999,0.60001,-0.4,-0.08999,           85P     85
-0.001,110.001,-0.001,1.001;                                          85P     86
128,1,1,1,1,0,0,1,0,0,-55.001,-55.001,55.001,55.001,-32.501,          87P     87
-32.501,32.501,32.501,1.,1.,1.,1.,-0.50001,-0.40001,-0.09,            87P     88
0.60001,-0.40001,-0.09,-0.50001,0.25001,-0.09,0.60001,0.25001,        87P     89
-0.09,-55.001,55.001,-32.501,32.501;                                  87P     90
128,1,1,1,1,0,0,1,0,0,-55.001,-55.001,55.001,55.001,-32.501,          89P     91
-32.501,32.501,32.501,1.,1.,1.,1.,0.60001,-0.40001,-0.1,              89P     92
-0.50001,-0.40001,-0.1,0.60001,0.25001,-0.1,-0.50001,0.25001,         89P     93
-0.1,-55.001,55.001,-32.501,32.501;                                   89P     94
128,1,8,1,2,0,1,0,0,1,0.,0.,2.66666666666667,2.66666666666667,        91P     95
-3.14159265358979,-3.14159265358979,-3.14159265358979,                91P     96
-1.5707963267949,-1.5707963267949,0.,0.,1.5707963267949,              91P     97
1.5707963267949,3.14159265358979,3.14159265358979,                    91P     98
3.14159265358979,1.,1.,0.707106781186548,0.707106781186548,1.,        91P     99
1.,0.707106781186548,0.707106781186548,1.,1.,0.707106781186548,       91P    100
0.707106781186548,1.,1.,0.707106781186548,0.707106781186548,1.,       91P    101
1.,-0.15,0.,0.4,-0.15,0.,0.,-0.15,-0.15,0.4,-0.15,-0.15,0.,0.,        91P    102
-0.15,0.4,0.,-0.15,0.,0.15,-0.15,0.4,0.15,-0.15,0.,0.15,0.,0.4,       91P    103
0.15,0.,0.,0.15,0.15,0.4,0.15,0.15,0.,0.,0.15,0.4,0.,0.15,0.,         91P    104
-0.15,0.15,0.4,-0.15,0.15,0.,-0.15,0.,0.4,-0.15,0.,0.,0.,             91P    105
2.66666666666667,-3.14159265358979,3.14159265358979;                  91P    106
128,1,1,1,1,0,0,1,0,0,-15.001,-15.001,15.001,15.001,-15.001,          93P    107
-15.001,15.001,15.001,1.,1.,1.,1.,-0.15001,-0.15001,0.4,0.15001,      93P    108
-0.15001,0.4,-0.15001,0.15001,0.4,0.15001,0.15001,0.4,-15.001,        93P    109
15.001,-15.001,15.001;                                                93P    110
128,1,1,1,1,0,0,1,0,0,-15.001,-15.001,15.001,15.001,-15.001,          95P    111
-15.001,15.001,15.001,1.,1.,1.,1.,0.15001,-0.15001,0.,-0.15001,       95P    112
-0.15001,0.,0.15001,0.15001,0.,-0.15001,0.15001,0.,-15.001,           95P    113
15.001,-15.001,15.001;                                                95P    114
502,8,-0.5,-0.4,-0.1,-0.5,0.25,-0.1,-0.5,-0.4,-0.09,-0.5,0.25,        97P    115
-0.09,0.6,0.25,-0.1,0.6,0.25,-0.09,0.6,-0.4,-0.1,0.6,-0.4,-0.09;      97P    116
502,2,-0.15,-1.83697019872103D-17,0.4,-0.15,                          99P    117
-1.83697019872103D-17,0.;                                             99P    118
504,12,49,97,1,97,2,51,97,1,97,3,53,97,4,97,3,55,97,2,97,4,57,       101P    119
97,2,97,5,59,97,6,97,4,61,97,5,97,6,63,97,5,97,7,65,97,8,97,6,       101P    120
67,97,7,97,8,69,97,7,97,1,71,97,3,97,8;                              101P    121
504,3,73,99,1,99,1,75,99,1,99,2,77,99,2,99,2;                        103P    122
406,1,5HBody1;                                                       105P    123
406,1,12HComponent1:1;                                               107P    124
314,62.7450980392157,62.7450980392157,62.7450980392157,13HSteel      109P    125
- Satin;                                                             109P    126
S      1G      3D    110P    126                                        T      1
